<?xml version="1.0" encoding="UTF-8"?>
<svg id="Livello_1" data-name="Livello 1" xmlns="http://www.w3.org/2000/svg" xmlns:xlink="http://www.w3.org/1999/xlink" viewBox="30 165 340 100">
  <defs>
    <style>
      .cls-1 {
        fill: #fff;
      }
    </style>
  </defs>
  <path class="cls-1" d="M119.25,231.66v-5.66l17.59-26.36h-17.48v-6.1h25.92v5.66l-17.65,26.36h17.75v6.1h-26.14Z"/>
  <path class="cls-1" d="M152.85,231.66v-38.12h25.11v5.94h-17.75v9.97h16.12v5.72h-16.12v10.57h17.75v5.94h-25.11Z"/>
  <path class="cls-1" d="M185.69,231.66v-38.12h14.21c3.12,0,5.7.53,7.73,1.58,2.03,1.05,3.55,2.47,4.55,4.25,1,1.78,1.5,3.81,1.5,6.1,0,2.07-.49,4-1.47,5.8-.98,1.8-2.47,3.26-4.47,4.38-2,1.13-4.61,1.69-7.84,1.69h-6.86v14.32h-7.35ZM193.04,211.4h6.43c2.4,0,4.11-.54,5.15-1.63,1.03-1.09,1.55-2.54,1.55-4.36s-.52-3.29-1.55-4.33-2.75-1.55-5.15-1.55h-6.43v11.87Z"/>
  <path class="cls-1" d="M220.22,231.66v-38.12h7.35v38.12h-7.35ZM226.59,215.16v-5.94h18.9v5.94h-18.9ZM244.24,231.66v-38.12h7.35v38.12h-7.35Z"/>
  <path class="cls-1" d="M270.05,231.66v-13.4l-12.91-24.73h8.33l9.04,18.9h-1.47l8.93-18.9h8.22l-12.8,24.73v13.4h-7.35Z"/>
  <path class="cls-1" d="M295.87,231.66v-38.12h14.27c3.05,0,5.58.53,7.6,1.58,2.02,1.05,3.51,2.46,4.49,4.22.98,1.76,1.47,3.71,1.47,5.85s-.48,3.93-1.44,5.69c-.96,1.76-2.45,3.18-4.47,4.25-2.01,1.07-4.6,1.61-7.76,1.61h-6.81v14.92h-7.35ZM303.22,211.4h6.43c2.25,0,3.9-.54,4.96-1.63,1.05-1.09,1.58-2.52,1.58-4.3s-.52-3.19-1.55-4.22c-1.04-1.04-2.7-1.55-4.98-1.55h-6.43v11.71ZM315.64,231.66l-7.84-16.77h7.95l8.28,16.77h-8.39Z"/>
  <path class="cls-1" d="M327.82,231.66l13.89-38.12h8.33l13.89,38.12h-7.79l-10.29-29.74-10.35,29.74h-7.68ZM333.92,223l1.96-5.72h19.39l1.91,5.72h-23.25Z"/>
  <g>
    <path class="cls-1" d="M78.62,193.54h23.61v17.36h-40.96c0-9.58,7.78-17.36,17.36-17.36Z" transform="translate(163.49 404.43) rotate(180)"/>
    <path class="cls-1" d="M78.62,214.3h23.58v17.36h-40.93c0-9.58,7.78-17.36,17.36-17.36Z"/>
  </g>
</svg>
