<svg xmlns="http://www.w3.org/2000/svg" viewBox="400 400 1350 1350" preserveAspectRatio="xMidYMid meet">
  <defs>
    <clipPath id="a" clipPathUnits="userSpaceOnUse">
      <path d="M0 1600h1600V0H0Z"></path>
    </clipPath>
  </defs>
  <path d="M0 0h-844.668v844.668h453.66v41.357h-495.017V-41.357H41.357v723.972H0Z"
    transform="matrix(1.33333 0 0 -1.33333 1581.367 1680.917)"
    style="fill: var(--mantine-primary-color-filled); fill-opacity: 1; fill-rule: nonzero; stroke: none;"></path>
  <g clip-path="url(#a)" transform="matrix(1.33333 0 0 -1.33333 0 2133.333)">
    <path
      d="M0 0c47.214 0 88.46-11.803 123.739-35.41 35.273-23.607 60.561-56.21 75.853-97.789h73.642c-16.639 62.237-49.636 111.803-98.995 148.698C124.874 52.373 66.797 70.82 0 70.82c-56.336 0-107.043-12.671-152.111-38.025-45.068-25.353-80.281-60.693-105.63-106.028-25.353-45.346-38.03-96.447-38.03-153.323 0-56.876 12.677-107.977 38.03-153.313 25.349-45.335 60.562-80.685 105.63-106.038C-107.043-511.251-56.336-523.932 0-523.932c68.139 0 127.091 19.113 176.854 57.34 49.763 38.238 82.83 89.944 99.192 155.13h-73.637c-15.029-44.265-40.378-78.938-76.055-104.019C90.671-440.572 48.551-453.102 0-453.102c-64.656 0-117.776 21.183-159.356 63.571-41.584 42.387-62.369 96.708-62.369 162.975 0 66.266 20.785 120.588 62.369 162.975C-117.776-21.194-64.656 0 0 0"
      transform="translate(773.553 988.203)"
      style="fill: var(--mantine-primary-color-filled); fill-opacity: 1; fill-rule: nonzero; stroke: none;"></path>
    <path
      d="M0 0c-26 0-50.45-10.132-68.846-28.534L-91.712-51.4l29.24-29.241 22.866 22.866C-29.014-47.188-14.949-41.357 0-41.357c30.891 0 56.023-25.137 56.023-56.028 0-30.892-25.132-56.023-56.023-56.023-14.913 0-28.989 5.84-39.631 16.447l-.002-.002-108.429 108.429C-166.459-10.132-190.929 0-216.959 0c-53.701 0-97.385-43.685-97.385-97.385 0-53.696 43.684-97.381 97.385-97.381 25.964 0 50.424 10.122 68.872 28.504l.025.03 22.864 22.864-29.241 29.241-22.837-22.836-.002.002c-10.642-10.607-24.737-16.447-39.681-16.447-30.892 0-56.028 25.131-56.028 56.023 0 30.891 25.136 56.028 56.028 56.028 14.984 0 29.064-5.831 39.656-16.418l108.457-108.457.025-.03C-50.374-184.644-25.929-194.766 0-194.766c53.695 0 97.38 43.685 97.38 97.381C97.38-43.685 53.695 0 0 0"
      transform="translate(1202.62 1302.045)"
      style="fill: var(--mantine-primary-color-filled); fill-opacity: 1; fill-rule: nonzero; stroke: none;"></path>
  </g>
</svg>
